<svg width="100" height="100" viewBox="0 0 100 100" fill="none" xmlns="http://www.w3.org/2000/svg">
<g clip-path="url(#clip0_1_2)">
<path fill-rule="evenodd" clip-rule="evenodd" d="M37.46 21.96H35.89V29.88H37.46V21.96Z" fill="#0BA5EC"/>
<path fill-rule="evenodd" clip-rule="evenodd" d="M44.17 21.96H42.6V29.88H44.17V21.96Z" fill="#0BA5EC"/>
<path fill-rule="evenodd" clip-rule="evenodd" d="M53.37 6.92L51.75 4.23L25.02 19.27L26.64 21.96L53.37 6.92Z" fill="#0BA5EC"/>
<path fill-rule="evenodd" clip-rule="evenodd" d="M53.2 6.92L54.82 4.23L81.55 19.31L79.93 22L53.2 6.92Z" fill="#0BA5EC"/>
<path fill-rule="evenodd" clip-rule="evenodd" d="M86.27 22.01V18.9H13V22.01H86.27Z" fill="#0BA5EC"/>
<path fill-rule="evenodd" clip-rule="evenodd" d="M61.41 66.18V19.85H64.6V68.46C63.73 67.51 62.65 66.8 61.41 66.22V66.18Z" fill="#0BA5EC"/>
<path fill-rule="evenodd" clip-rule="evenodd" d="M51.79 65.4V0H54.98V65.77C54.07 65.36 51.87 65.4 51.79 65.4Z" fill="#0BA5EC"/>
<path fill-rule="evenodd" clip-rule="evenodd" d="M21.42 71.9C17.52 69.08 14.91 64.56 14.91 59.47C14.91 56.78 15.66 54.08 17.02 51.76H44.41C45.82 54.08 46.52 56.77 46.52 59.47C46.52 61.83 46.19 64.03 45.24 66.02C43.17 64.07 40.1 63.24 37.03 63.24C31.56 63.24 26.88 66.56 25.63 71.53C25.22 71.53 24.93 71.45 24.51 71.45C23.47 71.45 22.44 71.66 21.4 71.91H21.42V71.9Z" fill="#0BA5EC"/>
<path fill-rule="evenodd" clip-rule="evenodd" d="M34.84 33.36H26.55V41.48H34.84V33.36Z" fill="#0BA5EC"/>
<path fill-rule="evenodd" clip-rule="evenodd" d="M25.52 33.36H17.23V41.48H25.52V33.36Z" fill="#0BA5EC"/>
<path fill-rule="evenodd" clip-rule="evenodd" d="M25.52 42.44H17.23V50.56H25.52V42.44Z" fill="#0BA5EC"/>
<path fill-rule="evenodd" clip-rule="evenodd" d="M34.84 42.44H26.55V50.56H34.84V42.44Z" fill="#0BA5EC"/>
<path fill-rule="evenodd" clip-rule="evenodd" d="M44.17 42.44H35.88V50.56H44.17V42.44Z" fill="#0BA5EC"/>
<path fill-rule="evenodd" clip-rule="evenodd" d="M44.17 29.01H35.88V37.13H44.17V29.01Z" fill="#0BA5EC"/>
<path fill-rule="evenodd" clip-rule="evenodd" d="M27.01 73.15C28.13 68.47 32.48 64.94 37.66 64.94C40.98 64.94 43.96 66.39 45.99 68.67C47.73 67.47 49.84 66.81 52.16 66.81C58.17 66.81 63.06 71.58 63.06 77.46C63.06 78.66 62.85 79.82 62.48 80.94C63.81 82.68 64.63 84.92 64.63 87.28C64.63 93.16 59.74 97.93 53.73 97.93C51.08 97.93 48.63 97.02 46.77 95.48C44.78 98.17 41.55 100 37.86 100C33.63 100 29.94 97.64 28.12 94.2C27.37 94.37 26.63 94.45 25.84 94.45C19.83 94.45 14.9 89.68 14.9 83.8C14.9 77.92 19.79 73.15 25.84 73.15H27.01Z" fill="#0BA5EC"/>
</g>
<defs>
<clipPath id="clip0_1_2">
<rect width="73.27" height="100" fill="white" transform="translate(13)"/>
</clipPath>
</defs>
</svg>
